<?xml version="1.0" encoding="utf-8" standalone="no"?>
<!DOCTYPE svg PUBLIC "-//W3C//DTD SVG 1.1//EN"
  "http://www.w3.org/Graphics/SVG/1.1/DTD/svg11.dtd">
<svg xmlns:xlink="http://www.w3.org/1999/xlink" width="357.12pt" height="214.272pt" viewBox="0 0 357.12 214.272" xmlns="http://www.w3.org/2000/svg" version="1.1">
 <metadata>
  <rdf:RDF xmlns:dc="http://purl.org/dc/elements/1.1/" xmlns:cc="http://creativecommons.org/ns#" xmlns:rdf="http://www.w3.org/1999/02/22-rdf-syntax-ns#">
   <cc:Work>
    <dc:type rdf:resource="http://purl.org/dc/dcmitype/StillImage"/>
    <dc:date>2024-06-10T16:15:55.393220</dc:date>
    <dc:format>image/svg+xml</dc:format>
    <dc:creator>
     <cc:Agent>
      <dc:title>Matplotlib v3.9.0, https://matplotlib.org/</dc:title>
     </cc:Agent>
    </dc:creator>
   </cc:Work>
  </rdf:RDF>
 </metadata>
 <defs>
  <style type="text/css">*{stroke-linejoin: round; stroke-linecap: butt}</style>
 </defs>
 <g id="figure_1">
  <g id="patch_1">
   <path d="M 0 214.272 
L 357.12 214.272 
L 357.12 0 
L 0 0 
z
" style="fill: #ffffff"/>
  </g>
  <g id="axes_1">
   <g id="patch_2">
    <path d="M 35.712 32.1408 
C 36.659093 32.1408 37.567524 32.517084 38.23722 33.18678 
C 38.906916 33.856476 39.2832 34.764907 39.2832 35.712 
C 39.2832 36.659093 38.906916 37.567524 38.23722 38.23722 
C 37.567524 38.906916 36.659093 39.2832 35.712 39.2832 
C 34.764907 39.2832 33.856476 38.906916 33.18678 38.23722 
C 32.517084 37.567524 32.1408 36.659093 32.1408 35.712 
C 32.1408 34.764907 32.517084 33.856476 33.18678 33.18678 
C 33.856476 32.517084 34.764907 32.1408 35.712 32.1408 
z
" clip-path="url(#p0b08d4e87f)" style="fill: #cccccc; stroke: #cccccc; stroke-linejoin: miter"/>
   </g>
   <g id="patch_3">
    <path d="M 178.56 32.1408 
C 179.507093 32.1408 180.415524 32.517084 181.08522 33.18678 
C 181.754916 33.856476 182.1312 34.764907 182.1312 35.712 
C 182.1312 36.659093 181.754916 37.567524 181.08522 38.23722 
C 180.415524 38.906916 179.507093 39.2832 178.56 39.2832 
C 177.612907 39.2832 176.704476 38.906916 176.03478 38.23722 
C 175.365084 37.567524 174.9888 36.659093 174.9888 35.712 
C 174.9888 34.764907 175.365084 33.856476 176.03478 33.18678 
C 176.704476 32.517084 177.612907 32.1408 178.56 32.1408 
z
" clip-path="url(#p0b08d4e87f)" style="fill: #cccccc; stroke: #cccccc; stroke-linejoin: miter"/>
   </g>
   <g id="patch_4">
    <path d="M 321.408 32.1408 
C 322.355093 32.1408 323.263524 32.517084 323.93322 33.18678 
C 324.602916 33.856476 324.9792 34.764907 324.9792 35.712 
C 324.9792 36.659093 324.602916 37.567524 323.93322 38.23722 
C 323.263524 38.906916 322.355093 39.2832 321.408 39.2832 
C 320.460907 39.2832 319.552476 38.906916 318.88278 38.23722 
C 318.213084 37.567524 317.8368 36.659093 317.8368 35.712 
C 317.8368 34.764907 318.213084 33.856476 318.88278 33.18678 
C 319.552476 32.517084 320.460907 32.1408 321.408 32.1408 
z
" clip-path="url(#p0b08d4e87f)" style="fill: #cccccc; stroke: #cccccc; stroke-linejoin: miter"/>
   </g>
   <g id="patch_5">
    <path d="M 35.712 174.9888 
C 36.659093 174.9888 37.567524 175.365084 38.23722 176.03478 
C 38.906916 176.704476 39.2832 177.612907 39.2832 178.56 
C 39.2832 179.507093 38.906916 180.415524 38.23722 181.08522 
C 37.567524 181.754916 36.659093 182.1312 35.712 182.1312 
C 34.764907 182.1312 33.856476 181.754916 33.18678 181.08522 
C 32.517084 180.415524 32.1408 179.507093 32.1408 178.56 
C 32.1408 177.612907 32.517084 176.704476 33.18678 176.03478 
C 33.856476 175.365084 34.764907 174.9888 35.712 174.9888 
z
" clip-path="url(#p0b08d4e87f)" style="fill: #cccccc; stroke: #cccccc; stroke-linejoin: miter"/>
   </g>
   <g id="patch_6">
    <path d="M 178.56 174.9888 
C 179.507093 174.9888 180.415524 175.365084 181.08522 176.03478 
C 181.754916 176.704476 182.1312 177.612907 182.1312 178.56 
C 182.1312 179.507093 181.754916 180.415524 181.08522 181.08522 
C 180.415524 181.754916 179.507093 182.1312 178.56 182.1312 
C 177.612907 182.1312 176.704476 181.754916 176.03478 181.08522 
C 175.365084 180.415524 174.9888 179.507093 174.9888 178.56 
C 174.9888 177.612907 175.365084 176.704476 176.03478 176.03478 
C 176.704476 175.365084 177.612907 174.9888 178.56 174.9888 
z
" clip-path="url(#p0b08d4e87f)" style="fill: #cccccc; stroke: #cccccc; stroke-linejoin: miter"/>
   </g>
   <g id="patch_7">
    <path d="M 321.408 174.9888 
C 322.355093 174.9888 323.263524 175.365084 323.93322 176.03478 
C 324.602916 176.704476 324.9792 177.612907 324.9792 178.56 
C 324.9792 179.507093 324.602916 180.415524 323.93322 181.08522 
C 323.263524 181.754916 322.355093 182.1312 321.408 182.1312 
C 320.460907 182.1312 319.552476 181.754916 318.88278 181.08522 
C 318.213084 180.415524 317.8368 179.507093 317.8368 178.56 
C 317.8368 177.612907 318.213084 176.704476 318.88278 176.03478 
C 319.552476 175.365084 320.460907 174.9888 321.408 174.9888 
z
" clip-path="url(#p0b08d4e87f)" style="fill: #cccccc; stroke: #cccccc; stroke-linejoin: miter"/>
   </g>
   <g id="line2d_1">
    <path d="M 35.712 35.712 
L 149.497077 13.335877 
" clip-path="url(#p0b08d4e87f)" style="fill: none; stroke: #0033cc; stroke-width: 4; stroke-linecap: round"/>
   </g>
   <g id="line2d_2">
    <path d="M 149.497077 13.335877 
L 178.56 35.712 
" clip-path="url(#p0b08d4e87f)" style="fill: none; stroke: #0033cc; stroke-width: 4; stroke-linecap: round"/>
   </g>
   <g id="line2d_3">
    <path d="M 35.712 35.712 
L 78.380786 42.238666 
" clip-path="url(#p0b08d4e87f)" style="fill: none; stroke: #daf7a6; stroke-width: 4; stroke-linecap: round"/>
   </g>
   <g id="line2d_4">
    <path d="M 78.380786 42.238666 
L 160.537893 29.123069 
" clip-path="url(#p0b08d4e87f)" style="fill: none; stroke: #daf7a6; stroke-width: 4; stroke-linecap: round"/>
   </g>
   <g id="line2d_5">
    <path d="M 160.537893 29.123069 
L 321.408 35.712 
" clip-path="url(#p0b08d4e87f)" style="fill: none; stroke: #daf7a6; stroke-width: 4; stroke-linecap: round"/>
   </g>
   <g id="line2d_6">
    <path d="M 178.56 35.712 
L 53.732015 77.93879 
" clip-path="url(#p0b08d4e87f)" style="fill: none; stroke: #85ff33; stroke-width: 4; stroke-linecap: round"/>
   </g>
   <g id="line2d_7">
    <path d="M 53.732015 77.93879 
L 35.712 178.56 
" clip-path="url(#p0b08d4e87f)" style="fill: none; stroke: #85ff33; stroke-width: 4; stroke-linecap: round"/>
   </g>
   <g id="line2d_8">
    <path d="M 321.408 35.712 
L 347.015834 134.619924 
" clip-path="url(#p0b08d4e87f)" style="fill: none; stroke: #0033cc; stroke-width: 4; stroke-linecap: round"/>
   </g>
   <g id="line2d_9">
    <path d="M 347.015834 134.619924 
L 321.408 178.56 
" clip-path="url(#p0b08d4e87f)" style="fill: none; stroke: #0033cc; stroke-width: 4; stroke-linecap: round"/>
   </g>
  </g>
 </g>
 <defs>
  <clipPath id="p0b08d4e87f">
   <rect x="0" y="-0" width="357.12" height="214.272"/>
  </clipPath>
 </defs>
</svg>
