<svg version="1.1" xmlns="http://www.w3.org/2000/svg" xmlns:xlink="http://www.w3.org/1999/xlink" width="400" height="400" viewBox="0 0 400 400"><defs/><g><rect fill="rgb(255,255,255)" stroke="none" x="0" y="0" width="400" height="400" transform="matrix(1 0 0 1 0 0)" fill-opacity="1"/><path fill="rgb(255,182,193)" stroke="rgb(255,255,255)" paint-order="fill stroke markers" d=" M 0 0 L 40 0 L 40 40 L 0 40 L 0 0 Z" fill-opacity="0.7058823529411765" stroke-opacity="1" stroke-linecap="round" stroke-miterlimit="10" stroke-width="2" stroke-dasharray=""/><path fill="rgb(255,182,193)" stroke="rgb(255,255,255)" paint-order="fill stroke markers" d=" M 0 40 L 40 40 L 40 80 L 0 80 L 0 40 Z" fill-opacity="0.7058823529411765" stroke-opacity="1" stroke-linecap="round" stroke-miterlimit="10" stroke-width="2" stroke-dasharray=""/><path fill="rgb(255,182,193)" stroke="rgb(255,255,255)" paint-order="fill stroke markers" d=" M 0 80 L 40 80 L 40 120 L 0 120 L 0 80 Z" fill-opacity="0.7058823529411765" stroke-opacity="1" stroke-linecap="round" stroke-miterlimit="10" stroke-width="2" stroke-dasharray=""/><path fill="rgb(255,182,193)" stroke="rgb(255,255,255)" paint-order="fill stroke markers" d=" M 0 120 L 40 120 L 40 160 L 0 160 L 0 120 Z" fill-opacity="0.7058823529411765" stroke-opacity="1" stroke-linecap="round" stroke-miterlimit="10" stroke-width="2" stroke-dasharray=""/><path fill="rgb(255,182,193)" stroke="rgb(255,255,255)" paint-order="fill stroke markers" d=" M 40 120 L 80 120 L 80 160 L 40 160 L 40 120 Z" fill-opacity="0.7058823529411765" stroke-opacity="1" stroke-linecap="round" stroke-miterlimit="10" stroke-width="2" stroke-dasharray=""/><path fill="rgb(255,182,193)" stroke="rgb(255,255,255)" paint-order="fill stroke markers" d=" M 200 0 L 240 0 L 240 40 L 200 40 L 200 0 Z" fill-opacity="0.7058823529411765" stroke-opacity="1" stroke-linecap="round" stroke-miterlimit="10" stroke-width="2" stroke-dasharray=""/><path fill="rgb(255,182,193)" stroke="rgb(255,255,255)" paint-order="fill stroke markers" d=" M 200 40 L 240 40 L 240 80 L 200 80 L 200 40 Z" fill-opacity="0.7058823529411765" stroke-opacity="1" stroke-linecap="round" stroke-miterlimit="10" stroke-width="2" stroke-dasharray=""/><path fill="rgb(255,182,193)" stroke="rgb(255,255,255)" paint-order="fill stroke markers" d=" M 200 80 L 240 80 L 240 120 L 200 120 L 200 80 Z" fill-opacity="0.7058823529411765" stroke-opacity="1" stroke-linecap="round" stroke-miterlimit="10" stroke-width="2" stroke-dasharray=""/><path fill="rgb(255,182,193)" stroke="rgb(255,255,255)" paint-order="fill stroke markers" d=" M 200 120 L 240 120 L 240 160 L 200 160 L 200 120 Z" fill-opacity="0.7058823529411765" stroke-opacity="1" stroke-linecap="round" stroke-miterlimit="10" stroke-width="2" stroke-dasharray=""/><path fill="rgb(255,182,193)" stroke="rgb(255,255,255)" paint-order="fill stroke markers" d=" M 240 120 L 280 120 L 280 160 L 240 160 L 240 120 Z" fill-opacity="0.7058823529411765" stroke-opacity="1" stroke-linecap="round" stroke-miterlimit="10" stroke-width="2" stroke-dasharray=""/><path fill="rgb(255,182,193)" stroke="rgb(255,255,255)" paint-order="fill stroke markers" d=" M 400 0 L 440 0 L 440 40 L 400 40 L 400 0 Z" fill-opacity="0.7058823529411765" stroke-opacity="1" stroke-linecap="round" stroke-miterlimit="10" stroke-width="2" stroke-dasharray=""/><path fill="rgb(255,105,180)" stroke="rgb(255,255,255)" paint-order="fill stroke markers" d=" M 0 40 L 40 40 L 40 80 L 0 80 L 0 40 Z" fill-opacity="0.7058823529411765" stroke-opacity="1" stroke-linecap="round" stroke-miterlimit="10" stroke-width="2" stroke-dasharray=""/><path fill="rgb(255,105,180)" stroke="rgb(255,255,255)" paint-order="fill stroke markers" d=" M 0 80 L 40 80 L 40 120 L 0 120 L 0 80 Z" fill-opacity="0.7058823529411765" stroke-opacity="1" stroke-linecap="round" stroke-miterlimit="10" stroke-width="2" stroke-dasharray=""/><path fill="rgb(255,105,180)" stroke="rgb(255,255,255)" paint-order="fill stroke markers" d=" M 0 120 L 40 120 L 40 160 L 0 160 L 0 120 Z" fill-opacity="0.7058823529411765" stroke-opacity="1" stroke-linecap="round" stroke-miterlimit="10" stroke-width="2" stroke-dasharray=""/><path fill="rgb(255,105,180)" stroke="rgb(255,255,255)" paint-order="fill stroke markers" d=" M 0 160 L 40 160 L 40 200 L 0 200 L 0 160 Z" fill-opacity="0.7058823529411765" stroke-opacity="1" stroke-linecap="round" stroke-miterlimit="10" stroke-width="2" stroke-dasharray=""/><path fill="rgb(255,105,180)" stroke="rgb(255,255,255)" paint-order="fill stroke markers" d=" M 40 160 L 80 160 L 80 200 L 40 200 L 40 160 Z" fill-opacity="0.7058823529411765" stroke-opacity="1" stroke-linecap="round" stroke-miterlimit="10" stroke-width="2" stroke-dasharray=""/><path fill="rgb(240,230,140)" stroke="rgb(255,255,255)" paint-order="fill stroke markers" d=" M 200 40 L 240 40 L 240 80 L 200 80 L 200 40 Z" fill-opacity="0.7058823529411765" stroke-opacity="1" stroke-linecap="round" stroke-miterlimit="10" stroke-width="2" stroke-dasharray=""/><path fill="rgb(240,230,140)" stroke="rgb(255,255,255)" paint-order="fill stroke markers" d=" M 240 40 L 280 40 L 280 80 L 240 80 L 240 40 Z" fill-opacity="0.7058823529411765" stroke-opacity="1" stroke-linecap="round" stroke-miterlimit="10" stroke-width="2" stroke-dasharray=""/><path fill="rgb(144,238,144)" stroke="rgb(255,255,255)" paint-order="fill stroke markers" d=" M 280 40 L 320 40 L 320 80 L 280 80 L 280 40 Z" fill-opacity="0.7058823529411765" stroke-opacity="1" stroke-linecap="round" stroke-miterlimit="10" stroke-width="2" stroke-dasharray=""/><path fill="rgb(144,238,144)" stroke="rgb(255,255,255)" paint-order="fill stroke markers" d=" M 320 40 L 360 40 L 360 80 L 320 80 L 320 40 Z" fill-opacity="0.7058823529411765" stroke-opacity="1" stroke-linecap="round" stroke-miterlimit="10" stroke-width="2" stroke-dasharray=""/><path fill="rgb(173,216,230)" stroke="rgb(255,255,255)" paint-order="fill stroke markers" d=" M 360 40 L 400 40 L 400 80 L 360 80 L 360 40 Z" fill-opacity="0.7058823529411765" stroke-opacity="1" stroke-linecap="round" stroke-miterlimit="10" stroke-width="2" stroke-dasharray=""/><path fill="rgb(255,105,180)" stroke="rgb(255,255,255)" paint-order="fill stroke markers" d=" M 400 40 L 440 40 L 440 80 L 400 80 L 400 40 Z" fill-opacity="0.7058823529411765" stroke-opacity="1" stroke-linecap="round" stroke-miterlimit="10" stroke-width="2" stroke-dasharray=""/><path fill="rgb(255,105,180)" stroke="rgb(255,255,255)" paint-order="fill stroke markers" d=" M 400 80 L 440 80 L 440 120 L 400 120 L 400 80 Z" fill-opacity="0.7058823529411765" stroke-opacity="1" stroke-linecap="round" stroke-miterlimit="10" stroke-width="2" stroke-dasharray=""/><path fill="rgb(255,105,180)" stroke="rgb(255,255,255)" paint-order="fill stroke markers" d=" M 400 120 L 440 120 L 440 160 L 400 160 L 400 120 Z" fill-opacity="0.7058823529411765" stroke-opacity="1" stroke-linecap="round" stroke-miterlimit="10" stroke-width="2" stroke-dasharray=""/><path fill="rgb(255,105,180)" stroke="rgb(255,255,255)" paint-order="fill stroke markers" d=" M 440 120 L 480 120 L 480 160 L 440 160 L 440 120 Z" fill-opacity="0.7058823529411765" stroke-opacity="1" stroke-linecap="round" stroke-miterlimit="10" stroke-width="2" stroke-dasharray=""/><path fill="rgb(255,105,180)" stroke="rgb(255,255,255)" paint-order="fill stroke markers" d=" M 0 80 L 40 80 L 40 120 L 0 120 L 0 80 Z" fill-opacity="0.7058823529411765" stroke-opacity="1" stroke-linecap="round" stroke-miterlimit="10" stroke-width="2" stroke-dasharray=""/><path fill="rgb(255,105,180)" stroke="rgb(255,255,255)" paint-order="fill stroke markers" d=" M 0 120 L 40 120 L 40 160 L 0 160 L 0 120 Z" fill-opacity="0.7058823529411765" stroke-opacity="1" stroke-linecap="round" stroke-miterlimit="10" stroke-width="2" stroke-dasharray=""/><path fill="rgb(255,105,180)" stroke="rgb(255,255,255)" paint-order="fill stroke markers" d=" M 0 160 L 40 160 L 40 200 L 0 200 L 0 160 Z" fill-opacity="0.7058823529411765" stroke-opacity="1" stroke-linecap="round" stroke-miterlimit="10" stroke-width="2" stroke-dasharray=""/><path fill="rgb(255,105,180)" stroke="rgb(255,255,255)" paint-order="fill stroke markers" d=" M 0 200 L 40 200 L 40 240 L 0 240 L 0 200 Z" fill-opacity="0.7058823529411765" stroke-opacity="1" stroke-linecap="round" stroke-miterlimit="10" stroke-width="2" stroke-dasharray=""/><path fill="rgb(255,105,180)" stroke="rgb(255,255,255)" paint-order="fill stroke markers" d=" M 40 200 L 80 200 L 80 240 L 40 240 L 40 200 Z" fill-opacity="0.7058823529411765" stroke-opacity="1" stroke-linecap="round" stroke-miterlimit="10" stroke-width="2" stroke-dasharray=""/><path fill="rgb(255,105,180)" stroke="rgb(255,255,255)" paint-order="fill stroke markers" d=" M 200 80 L 240 80 L 240 120 L 200 120 L 200 80 Z" fill-opacity="0.7058823529411765" stroke-opacity="1" stroke-linecap="round" stroke-miterlimit="10" stroke-width="2" stroke-dasharray=""/><path fill="rgb(255,105,180)" stroke="rgb(255,255,255)" paint-order="fill stroke markers" d=" M 240 80 L 280 80 L 280 120 L 240 120 L 240 80 Z" fill-opacity="0.7058823529411765" stroke-opacity="1" stroke-linecap="round" stroke-miterlimit="10" stroke-width="2" stroke-dasharray=""/><path fill="rgb(240,230,140)" stroke="rgb(255,255,255)" paint-order="fill stroke markers" d=" M 280 80 L 320 80 L 320 120 L 280 120 L 280 80 Z" fill-opacity="0.7058823529411765" stroke-opacity="1" stroke-linecap="round" stroke-miterlimit="10" stroke-width="2" stroke-dasharray=""/><path fill="rgb(240,230,140)" stroke="rgb(255,255,255)" paint-order="fill stroke markers" d=" M 320 80 L 360 80 L 360 120 L 320 120 L 320 80 Z" fill-opacity="0.7058823529411765" stroke-opacity="1" stroke-linecap="round" stroke-miterlimit="10" stroke-width="2" stroke-dasharray=""/><path fill="rgb(240,230,140)" stroke="rgb(255,255,255)" paint-order="fill stroke markers" d=" M 360 80 L 400 80 L 400 120 L 360 120 L 360 80 Z" fill-opacity="0.7058823529411765" stroke-opacity="1" stroke-linecap="round" stroke-miterlimit="10" stroke-width="2" stroke-dasharray=""/><path fill="rgb(240,230,140)" stroke="rgb(255,255,255)" paint-order="fill stroke markers" d=" M 400 80 L 440 80 L 440 120 L 400 120 L 400 80 Z" fill-opacity="0.7058823529411765" stroke-opacity="1" stroke-linecap="round" stroke-miterlimit="10" stroke-width="2" stroke-dasharray=""/><path fill="rgb(240,230,140)" stroke="rgb(255,255,255)" paint-order="fill stroke markers" d=" M 440 80 L 480 80 L 480 120 L 440 120 L 440 80 Z" fill-opacity="0.7058823529411765" stroke-opacity="1" stroke-linecap="round" stroke-miterlimit="10" stroke-width="2" stroke-dasharray=""/><path fill="rgb(144,238,144)" stroke="rgb(255,255,255)" paint-order="fill stroke markers" d=" M 0 120 L 40 120 L 40 160 L 0 160 L 0 120 Z" fill-opacity="0.7058823529411765" stroke-opacity="1" stroke-linecap="round" stroke-miterlimit="10" stroke-width="2" stroke-dasharray=""/><path fill="rgb(221,160,221)" stroke="rgb(255,255,255)" paint-order="fill stroke markers" d=" M 40 120 L 80 120 L 80 160 L 40 160 L 40 120 Z" fill-opacity="0.7058823529411765" stroke-opacity="1" stroke-linecap="round" stroke-miterlimit="10" stroke-width="2" stroke-dasharray=""/><path fill="rgb(255,105,180)" stroke="rgb(255,255,255)" paint-order="fill stroke markers" d=" M 80 120 L 120 120 L 120 160 L 80 160 L 80 120 Z" fill-opacity="0.7058823529411765" stroke-opacity="1" stroke-linecap="round" stroke-miterlimit="10" stroke-width="2" stroke-dasharray=""/><path fill="rgb(255,105,180)" stroke="rgb(255,255,255)" paint-order="fill stroke markers" d=" M 80 160 L 120 160 L 120 200 L 80 200 L 80 160 Z" fill-opacity="0.7058823529411765" stroke-opacity="1" stroke-linecap="round" stroke-miterlimit="10" stroke-width="2" stroke-dasharray=""/><path fill="rgb(255,105,180)" stroke="rgb(255,255,255)" paint-order="fill stroke markers" d=" M 80 200 L 120 200 L 120 240 L 80 240 L 80 200 Z" fill-opacity="0.7058823529411765" stroke-opacity="1" stroke-linecap="round" stroke-miterlimit="10" stroke-width="2" stroke-dasharray=""/><path fill="rgb(255,105,180)" stroke="rgb(255,255,255)" paint-order="fill stroke markers" d=" M 120 200 L 160 200 L 160 240 L 120 240 L 120 200 Z" fill-opacity="0.7058823529411765" stroke-opacity="1" stroke-linecap="round" stroke-miterlimit="10" stroke-width="2" stroke-dasharray=""/><path fill="rgb(173,216,230)" stroke="rgb(255,255,255)" paint-order="fill stroke markers" d=" M 240 120 L 280 120 L 280 160 L 240 160 L 240 120 Z" fill-opacity="0.7058823529411765" stroke-opacity="1" stroke-linecap="round" stroke-miterlimit="10" stroke-width="2" stroke-dasharray=""/><path fill="rgb(240,230,140)" stroke="rgb(255,255,255)" paint-order="fill stroke markers" d=" M 280 120 L 320 120 L 320 160 L 280 160 L 280 120 Z" fill-opacity="0.7058823529411765" stroke-opacity="1" stroke-linecap="round" stroke-miterlimit="10" stroke-width="2" stroke-dasharray=""/><path fill="rgb(240,230,140)" stroke="rgb(255,255,255)" paint-order="fill stroke markers" d=" M 320 120 L 360 120 L 360 160 L 320 160 L 320 120 Z" fill-opacity="0.7058823529411765" stroke-opacity="1" stroke-linecap="round" stroke-miterlimit="10" stroke-width="2" stroke-dasharray=""/><path fill="rgb(255,182,193)" stroke="rgb(255,255,255)" paint-order="fill stroke markers" d=" M 360 120 L 400 120 L 400 160 L 360 160 L 360 120 Z" fill-opacity="0.7058823529411765" stroke-opacity="1" stroke-linecap="round" stroke-miterlimit="10" stroke-width="2" stroke-dasharray=""/><path fill="rgb(255,182,193)" stroke="rgb(255,255,255)" paint-order="fill stroke markers" d=" M 360 160 L 400 160 L 400 200 L 360 200 L 360 160 Z" fill-opacity="0.7058823529411765" stroke-opacity="1" stroke-linecap="round" stroke-miterlimit="10" stroke-width="2" stroke-dasharray=""/><path fill="rgb(255,182,193)" stroke="rgb(255,255,255)" paint-order="fill stroke markers" d=" M 360 200 L 400 200 L 400 240 L 360 240 L 360 200 Z" fill-opacity="0.7058823529411765" stroke-opacity="1" stroke-linecap="round" stroke-miterlimit="10" stroke-width="2" stroke-dasharray=""/><path fill="rgb(255,105,180)" stroke="rgb(255,255,255)" paint-order="fill stroke markers" d=" M 0 160 L 40 160 L 40 200 L 0 200 L 0 160 Z" fill-opacity="0.7058823529411765" stroke-opacity="1" stroke-linecap="round" stroke-miterlimit="10" stroke-width="2" stroke-dasharray=""/><path fill="rgb(255,105,180)" stroke="rgb(255,255,255)" paint-order="fill stroke markers" d=" M 0 200 L 40 200 L 40 240 L 0 240 L 0 200 Z" fill-opacity="0.7058823529411765" stroke-opacity="1" stroke-linecap="round" stroke-miterlimit="10" stroke-width="2" stroke-dasharray=""/><path fill="rgb(255,105,180)" stroke="rgb(255,255,255)" paint-order="fill stroke markers" d=" M 0 240 L 40 240 L 40 280 L 0 280 L 0 240 Z" fill-opacity="0.7058823529411765" stroke-opacity="1" stroke-linecap="round" stroke-miterlimit="10" stroke-width="2" stroke-dasharray=""/><path fill="rgb(255,105,180)" stroke="rgb(255,255,255)" paint-order="fill stroke markers" d=" M 120 160 L 160 160 L 160 200 L 120 200 L 120 160 Z" fill-opacity="0.7058823529411765" stroke-opacity="1" stroke-linecap="round" stroke-miterlimit="10" stroke-width="2" stroke-dasharray=""/><path fill="rgb(255,105,180)" stroke="rgb(255,255,255)" paint-order="fill stroke markers" d=" M 160 160 L 200 160 L 200 200 L 160 200 L 160 160 Z" fill-opacity="0.7058823529411765" stroke-opacity="1" stroke-linecap="round" stroke-miterlimit="10" stroke-width="2" stroke-dasharray=""/><path fill="rgb(255,105,180)" stroke="rgb(255,255,255)" paint-order="fill stroke markers" d=" M 120 200 L 160 200 L 160 240 L 120 240 L 120 200 Z" fill-opacity="0.7058823529411765" stroke-opacity="1" stroke-linecap="round" stroke-miterlimit="10" stroke-width="2" stroke-dasharray=""/><path fill="rgb(255,105,180)" stroke="rgb(255,255,255)" paint-order="fill stroke markers" d=" M 160 200 L 200 200 L 200 240 L 160 240 L 160 200 Z" fill-opacity="0.7058823529411765" stroke-opacity="1" stroke-linecap="round" stroke-miterlimit="10" stroke-width="2" stroke-dasharray=""/><path fill="rgb(173,216,230)" stroke="rgb(255,255,255)" paint-order="fill stroke markers" d=" M 280 160 L 320 160 L 320 200 L 280 200 L 280 160 Z" fill-opacity="0.7058823529411765" stroke-opacity="1" stroke-linecap="round" stroke-miterlimit="10" stroke-width="2" stroke-dasharray=""/><path fill="rgb(173,216,230)" stroke="rgb(255,255,255)" paint-order="fill stroke markers" d=" M 280 200 L 320 200 L 320 240 L 280 240 L 280 200 Z" fill-opacity="0.7058823529411765" stroke-opacity="1" stroke-linecap="round" stroke-miterlimit="10" stroke-width="2" stroke-dasharray=""/><path fill="rgb(173,216,230)" stroke="rgb(255,255,255)" paint-order="fill stroke markers" d=" M 280 240 L 320 240 L 320 280 L 280 280 L 280 240 Z" fill-opacity="0.7058823529411765" stroke-opacity="1" stroke-linecap="round" stroke-miterlimit="10" stroke-width="2" stroke-dasharray=""/><path fill="rgb(173,216,230)" stroke="rgb(255,255,255)" paint-order="fill stroke markers" d=" M 280 280 L 320 280 L 320 320 L 280 320 L 280 280 Z" fill-opacity="0.7058823529411765" stroke-opacity="1" stroke-linecap="round" stroke-miterlimit="10" stroke-width="2" stroke-dasharray=""/><path fill="rgb(173,216,230)" stroke="rgb(255,255,255)" paint-order="fill stroke markers" d=" M 320 280 L 360 280 L 360 320 L 320 320 L 320 280 Z" fill-opacity="0.7058823529411765" stroke-opacity="1" stroke-linecap="round" stroke-miterlimit="10" stroke-width="2" stroke-dasharray=""/><path fill="rgb(255,182,193)" stroke="rgb(255,255,255)" paint-order="fill stroke markers" d=" M 0 200 L 40 200 L 40 240 L 0 240 L 0 200 Z" fill-opacity="0.7058823529411765" stroke-opacity="1" stroke-linecap="round" stroke-miterlimit="10" stroke-width="2" stroke-dasharray=""/><path fill="rgb(144,238,144)" stroke="rgb(255,255,255)" paint-order="fill stroke markers" d=" M 40 200 L 80 200 L 80 240 L 40 240 L 40 200 Z" fill-opacity="0.7058823529411765" stroke-opacity="1" stroke-linecap="round" stroke-miterlimit="10" stroke-width="2" stroke-dasharray=""/><path fill="rgb(144,238,144)" stroke="rgb(255,255,255)" paint-order="fill stroke markers" d=" M 80 200 L 120 200 L 120 240 L 80 240 L 80 200 Z" fill-opacity="0.7058823529411765" stroke-opacity="1" stroke-linecap="round" stroke-miterlimit="10" stroke-width="2" stroke-dasharray=""/><path fill="rgb(240,230,140)" stroke="rgb(255,255,255)" paint-order="fill stroke markers" d=" M 120 200 L 160 200 L 160 240 L 120 240 L 120 200 Z" fill-opacity="0.7058823529411765" stroke-opacity="1" stroke-linecap="round" stroke-miterlimit="10" stroke-width="2" stroke-dasharray=""/><path fill="rgb(240,230,140)" stroke="rgb(255,255,255)" paint-order="fill stroke markers" d=" M 160 200 L 200 200 L 200 240 L 160 240 L 160 200 Z" fill-opacity="0.7058823529411765" stroke-opacity="1" stroke-linecap="round" stroke-miterlimit="10" stroke-width="2" stroke-dasharray=""/><path fill="rgb(221,160,221)" stroke="rgb(255,255,255)" paint-order="fill stroke markers" d=" M 200 200 L 240 200 L 240 240 L 200 240 L 200 200 Z" fill-opacity="0.7058823529411765" stroke-opacity="1" stroke-linecap="round" stroke-miterlimit="10" stroke-width="2" stroke-dasharray=""/><path fill="rgb(221,160,221)" stroke="rgb(255,255,255)" paint-order="fill stroke markers" d=" M 240 200 L 280 200 L 280 240 L 240 240 L 240 200 Z" fill-opacity="0.7058823529411765" stroke-opacity="1" stroke-linecap="round" stroke-miterlimit="10" stroke-width="2" stroke-dasharray=""/><path fill="rgb(221,160,221)" stroke="rgb(255,255,255)" paint-order="fill stroke markers" d=" M 240 240 L 280 240 L 280 280 L 240 280 L 240 240 Z" fill-opacity="0.7058823529411765" stroke-opacity="1" stroke-linecap="round" stroke-miterlimit="10" stroke-width="2" stroke-dasharray=""/><path fill="rgb(221,160,221)" stroke="rgb(255,255,255)" paint-order="fill stroke markers" d=" M 240 280 L 280 280 L 280 320 L 240 320 L 240 280 Z" fill-opacity="0.7058823529411765" stroke-opacity="1" stroke-linecap="round" stroke-miterlimit="10" stroke-width="2" stroke-dasharray=""/><path fill="rgb(240,230,140)" stroke="rgb(255,255,255)" paint-order="fill stroke markers" d=" M 360 200 L 400 200 L 400 240 L 360 240 L 360 200 Z" fill-opacity="0.7058823529411765" stroke-opacity="1" stroke-linecap="round" stroke-miterlimit="10" stroke-width="2" stroke-dasharray=""/><path fill="rgb(240,230,140)" stroke="rgb(255,255,255)" paint-order="fill stroke markers" d=" M 360 240 L 400 240 L 400 280 L 360 280 L 360 240 Z" fill-opacity="0.7058823529411765" stroke-opacity="1" stroke-linecap="round" stroke-miterlimit="10" stroke-width="2" stroke-dasharray=""/><path fill="rgb(240,230,140)" stroke="rgb(255,255,255)" paint-order="fill stroke markers" d=" M 360 280 L 400 280 L 400 320 L 360 320 L 360 280 Z" fill-opacity="0.7058823529411765" stroke-opacity="1" stroke-linecap="round" stroke-miterlimit="10" stroke-width="2" stroke-dasharray=""/><path fill="rgb(240,230,140)" stroke="rgb(255,255,255)" paint-order="fill stroke markers" d=" M 400 280 L 440 280 L 440 320 L 400 320 L 400 280 Z" fill-opacity="0.7058823529411765" stroke-opacity="1" stroke-linecap="round" stroke-miterlimit="10" stroke-width="2" stroke-dasharray=""/><path fill="rgb(255,182,193)" stroke="rgb(255,255,255)" paint-order="fill stroke markers" d=" M 0 240 L 40 240 L 40 280 L 0 280 L 0 240 Z" fill-opacity="0.7058823529411765" stroke-opacity="1" stroke-linecap="round" stroke-miterlimit="10" stroke-width="2" stroke-dasharray=""/><path fill="rgb(255,182,193)" stroke="rgb(255,255,255)" paint-order="fill stroke markers" d=" M 0 280 L 40 280 L 40 320 L 0 320 L 0 280 Z" fill-opacity="0.7058823529411765" stroke-opacity="1" stroke-linecap="round" stroke-miterlimit="10" stroke-width="2" stroke-dasharray=""/><path fill="rgb(255,182,193)" stroke="rgb(255,255,255)" paint-order="fill stroke markers" d=" M 0 320 L 40 320 L 40 360 L 0 360 L 0 320 Z" fill-opacity="0.7058823529411765" stroke-opacity="1" stroke-linecap="round" stroke-miterlimit="10" stroke-width="2" stroke-dasharray=""/><path fill="rgb(255,182,193)" stroke="rgb(255,255,255)" paint-order="fill stroke markers" d=" M 0 360 L 40 360 L 40 400 L 0 400 L 0 360 Z" fill-opacity="0.7058823529411765" stroke-opacity="1" stroke-linecap="round" stroke-miterlimit="10" stroke-width="2" stroke-dasharray=""/><path fill="rgb(255,182,193)" stroke="rgb(255,255,255)" paint-order="fill stroke markers" d=" M 40 360 L 80 360 L 80 400 L 40 400 L 40 360 Z" fill-opacity="0.7058823529411765" stroke-opacity="1" stroke-linecap="round" stroke-miterlimit="10" stroke-width="2" stroke-dasharray=""/><path fill="rgb(173,216,230)" stroke="rgb(255,255,255)" paint-order="fill stroke markers" d=" M 200 240 L 240 240 L 240 280 L 200 280 L 200 240 Z" fill-opacity="0.7058823529411765" stroke-opacity="1" stroke-linecap="round" stroke-miterlimit="10" stroke-width="2" stroke-dasharray=""/><path fill="rgb(173,216,230)" stroke="rgb(255,255,255)" paint-order="fill stroke markers" d=" M 200 280 L 240 280 L 240 320 L 200 320 L 200 280 Z" fill-opacity="0.7058823529411765" stroke-opacity="1" stroke-linecap="round" stroke-miterlimit="10" stroke-width="2" stroke-dasharray=""/><path fill="rgb(173,216,230)" stroke="rgb(255,255,255)" paint-order="fill stroke markers" d=" M 200 320 L 240 320 L 240 360 L 200 360 L 200 320 Z" fill-opacity="0.7058823529411765" stroke-opacity="1" stroke-linecap="round" stroke-miterlimit="10" stroke-width="2" stroke-dasharray=""/><path fill="rgb(173,216,230)" stroke="rgb(255,255,255)" paint-order="fill stroke markers" d=" M 240 320 L 280 320 L 280 360 L 240 360 L 240 320 Z" fill-opacity="0.7058823529411765" stroke-opacity="1" stroke-linecap="round" stroke-miterlimit="10" stroke-width="2" stroke-dasharray=""/><path fill="rgb(221,160,221)" stroke="rgb(255,255,255)" paint-order="fill stroke markers" d=" M 360 240 L 400 240 L 400 280 L 360 280 L 360 240 Z" fill-opacity="0.7058823529411765" stroke-opacity="1" stroke-linecap="round" stroke-miterlimit="10" stroke-width="2" stroke-dasharray=""/><path fill="rgb(221,160,221)" stroke="rgb(255,255,255)" paint-order="fill stroke markers" d=" M 400 240 L 440 240 L 440 280 L 400 280 L 400 240 Z" fill-opacity="0.7058823529411765" stroke-opacity="1" stroke-linecap="round" stroke-miterlimit="10" stroke-width="2" stroke-dasharray=""/><path fill="rgb(221,160,221)" stroke="rgb(255,255,255)" paint-order="fill stroke markers" d=" M 440 240 L 480 240 L 480 280 L 440 280 L 440 240 Z" fill-opacity="0.7058823529411765" stroke-opacity="1" stroke-linecap="round" stroke-miterlimit="10" stroke-width="2" stroke-dasharray=""/><path fill="rgb(221,160,221)" stroke="rgb(255,255,255)" paint-order="fill stroke markers" d=" M 480 240 L 520 240 L 520 280 L 480 280 L 480 240 Z" fill-opacity="0.7058823529411765" stroke-opacity="1" stroke-linecap="round" stroke-miterlimit="10" stroke-width="2" stroke-dasharray=""/><path fill="rgb(221,160,221)" stroke="rgb(255,255,255)" paint-order="fill stroke markers" d=" M 520 240 L 560 240 L 560 280 L 520 280 L 520 240 Z" fill-opacity="0.7058823529411765" stroke-opacity="1" stroke-linecap="round" stroke-miterlimit="10" stroke-width="2" stroke-dasharray=""/><path fill="rgb(255,182,193)" stroke="rgb(255,255,255)" paint-order="fill stroke markers" d=" M 0 280 L 40 280 L 40 320 L 0 320 L 0 280 Z" fill-opacity="0.7058823529411765" stroke-opacity="1" stroke-linecap="round" stroke-miterlimit="10" stroke-width="2" stroke-dasharray=""/><path fill="rgb(255,182,193)" stroke="rgb(255,255,255)" paint-order="fill stroke markers" d=" M 40 280 L 80 280 L 80 320 L 40 320 L 40 280 Z" fill-opacity="0.7058823529411765" stroke-opacity="1" stroke-linecap="round" stroke-miterlimit="10" stroke-width="2" stroke-dasharray=""/><path fill="rgb(255,182,193)" stroke="rgb(255,255,255)" paint-order="fill stroke markers" d=" M 80 280 L 120 280 L 120 320 L 80 320 L 80 280 Z" fill-opacity="0.7058823529411765" stroke-opacity="1" stroke-linecap="round" stroke-miterlimit="10" stroke-width="2" stroke-dasharray=""/><path fill="rgb(255,182,193)" stroke="rgb(255,255,255)" paint-order="fill stroke markers" d=" M 120 280 L 160 280 L 160 320 L 120 320 L 120 280 Z" fill-opacity="0.7058823529411765" stroke-opacity="1" stroke-linecap="round" stroke-miterlimit="10" stroke-width="2" stroke-dasharray=""/><path fill="rgb(255,182,193)" stroke="rgb(255,255,255)" paint-order="fill stroke markers" d=" M 160 280 L 200 280 L 200 320 L 160 320 L 160 280 Z" fill-opacity="0.7058823529411765" stroke-opacity="1" stroke-linecap="round" stroke-miterlimit="10" stroke-width="2" stroke-dasharray=""/><path fill="rgb(221,160,221)" stroke="rgb(255,255,255)" paint-order="fill stroke markers" d=" M 200 280 L 240 280 L 240 320 L 200 320 L 200 280 Z" fill-opacity="0.7058823529411765" stroke-opacity="1" stroke-linecap="round" stroke-miterlimit="10" stroke-width="2" stroke-dasharray=""/><path fill="rgb(221,160,221)" stroke="rgb(255,255,255)" paint-order="fill stroke markers" d=" M 200 320 L 240 320 L 240 360 L 200 360 L 200 320 Z" fill-opacity="0.7058823529411765" stroke-opacity="1" stroke-linecap="round" stroke-miterlimit="10" stroke-width="2" stroke-dasharray=""/><path fill="rgb(221,160,221)" stroke="rgb(255,255,255)" paint-order="fill stroke markers" d=" M 200 360 L 240 360 L 240 400 L 200 400 L 200 360 Z" fill-opacity="0.7058823529411765" stroke-opacity="1" stroke-linecap="round" stroke-miterlimit="10" stroke-width="2" stroke-dasharray=""/><path fill="rgb(221,160,221)" stroke="rgb(255,255,255)" paint-order="fill stroke markers" d=" M 200 400 L 240 400 L 240 440 L 200 440 L 200 400 Z" fill-opacity="0.7058823529411765" stroke-opacity="1" stroke-linecap="round" stroke-miterlimit="10" stroke-width="2" stroke-dasharray=""/><path fill="rgb(221,160,221)" stroke="rgb(255,255,255)" paint-order="fill stroke markers" d=" M 240 400 L 280 400 L 280 440 L 240 440 L 240 400 Z" fill-opacity="0.7058823529411765" stroke-opacity="1" stroke-linecap="round" stroke-miterlimit="10" stroke-width="2" stroke-dasharray=""/><path fill="rgb(221,160,221)" stroke="rgb(255,255,255)" paint-order="fill stroke markers" d=" M 400 280 L 440 280 L 440 320 L 400 320 L 400 280 Z" fill-opacity="0.7058823529411765" stroke-opacity="1" stroke-linecap="round" stroke-miterlimit="10" stroke-width="2" stroke-dasharray=""/><path fill="rgb(221,160,221)" stroke="rgb(255,255,255)" paint-order="fill stroke markers" d=" M 440 280 L 480 280 L 480 320 L 440 320 L 440 280 Z" fill-opacity="0.7058823529411765" stroke-opacity="1" stroke-linecap="round" stroke-miterlimit="10" stroke-width="2" stroke-dasharray=""/><path fill="rgb(240,230,140)" stroke="rgb(255,255,255)" paint-order="fill stroke markers" d=" M 0 320 L 40 320 L 40 360 L 0 360 L 0 320 Z" fill-opacity="0.7058823529411765" stroke-opacity="1" stroke-linecap="round" stroke-miterlimit="10" stroke-width="2" stroke-dasharray=""/><path fill="rgb(173,216,230)" stroke="rgb(255,255,255)" paint-order="fill stroke markers" d=" M 40 320 L 80 320 L 80 360 L 40 360 L 40 320 Z" fill-opacity="0.7058823529411765" stroke-opacity="1" stroke-linecap="round" stroke-miterlimit="10" stroke-width="2" stroke-dasharray=""/><path fill="rgb(173,216,230)" stroke="rgb(255,255,255)" paint-order="fill stroke markers" d=" M 80 320 L 120 320 L 120 360 L 80 360 L 80 320 Z" fill-opacity="0.7058823529411765" stroke-opacity="1" stroke-linecap="round" stroke-miterlimit="10" stroke-width="2" stroke-dasharray=""/><path fill="rgb(255,182,193)" stroke="rgb(255,255,255)" paint-order="fill stroke markers" d=" M 120 320 L 160 320 L 160 360 L 120 360 L 120 320 Z" fill-opacity="0.7058823529411765" stroke-opacity="1" stroke-linecap="round" stroke-miterlimit="10" stroke-width="2" stroke-dasharray=""/><path fill="rgb(255,182,193)" stroke="rgb(255,255,255)" paint-order="fill stroke markers" d=" M 120 360 L 160 360 L 160 400 L 120 400 L 120 360 Z" fill-opacity="0.7058823529411765" stroke-opacity="1" stroke-linecap="round" stroke-miterlimit="10" stroke-width="2" stroke-dasharray=""/><path fill="rgb(255,182,193)" stroke="rgb(255,255,255)" paint-order="fill stroke markers" d=" M 120 400 L 160 400 L 160 440 L 120 440 L 120 400 Z" fill-opacity="0.7058823529411765" stroke-opacity="1" stroke-linecap="round" stroke-miterlimit="10" stroke-width="2" stroke-dasharray=""/><path fill="rgb(255,182,193)" stroke="rgb(255,255,255)" paint-order="fill stroke markers" d=" M 160 400 L 200 400 L 200 440 L 160 440 L 160 400 Z" fill-opacity="0.7058823529411765" stroke-opacity="1" stroke-linecap="round" stroke-miterlimit="10" stroke-width="2" stroke-dasharray=""/><path fill="rgb(255,182,193)" stroke="rgb(255,255,255)" paint-order="fill stroke markers" d=" M 280 320 L 320 320 L 320 360 L 280 360 L 280 320 Z" fill-opacity="0.7058823529411765" stroke-opacity="1" stroke-linecap="round" stroke-miterlimit="10" stroke-width="2" stroke-dasharray=""/><path fill="rgb(255,182,193)" stroke="rgb(255,255,255)" paint-order="fill stroke markers" d=" M 280 360 L 320 360 L 320 400 L 280 400 L 280 360 Z" fill-opacity="0.7058823529411765" stroke-opacity="1" stroke-linecap="round" stroke-miterlimit="10" stroke-width="2" stroke-dasharray=""/><path fill="rgb(255,182,193)" stroke="rgb(255,255,255)" paint-order="fill stroke markers" d=" M 280 400 L 320 400 L 320 440 L 280 440 L 280 400 Z" fill-opacity="0.7058823529411765" stroke-opacity="1" stroke-linecap="round" stroke-miterlimit="10" stroke-width="2" stroke-dasharray=""/><path fill="rgb(255,105,180)" stroke="rgb(255,255,255)" paint-order="fill stroke markers" d=" M 400 320 L 440 320 L 440 360 L 400 360 L 400 320 Z" fill-opacity="0.7058823529411765" stroke-opacity="1" stroke-linecap="round" stroke-miterlimit="10" stroke-width="2" stroke-dasharray=""/><path fill="rgb(255,105,180)" stroke="rgb(255,255,255)" paint-order="fill stroke markers" d=" M 400 360 L 440 360 L 440 400 L 400 400 L 400 360 Z" fill-opacity="0.7058823529411765" stroke-opacity="1" stroke-linecap="round" stroke-miterlimit="10" stroke-width="2" stroke-dasharray=""/><path fill="rgb(255,105,180)" stroke="rgb(255,255,255)" paint-order="fill stroke markers" d=" M 400 400 L 440 400 L 440 440 L 400 440 L 400 400 Z" fill-opacity="0.7058823529411765" stroke-opacity="1" stroke-linecap="round" stroke-miterlimit="10" stroke-width="2" stroke-dasharray=""/><path fill="rgb(221,160,221)" stroke="rgb(255,255,255)" paint-order="fill stroke markers" d=" M 0 360 L 40 360 L 40 400 L 0 400 L 0 360 Z" fill-opacity="0.7058823529411765" stroke-opacity="1" stroke-linecap="round" stroke-miterlimit="10" stroke-width="2" stroke-dasharray=""/><path fill="rgb(221,160,221)" stroke="rgb(255,255,255)" paint-order="fill stroke markers" d=" M 40 360 L 80 360 L 80 400 L 40 400 L 40 360 Z" fill-opacity="0.7058823529411765" stroke-opacity="1" stroke-linecap="round" stroke-miterlimit="10" stroke-width="2" stroke-dasharray=""/><path fill="rgb(240,230,140)" stroke="rgb(255,255,255)" paint-order="fill stroke markers" d=" M 80 360 L 120 360 L 120 400 L 80 400 L 80 360 Z" fill-opacity="0.7058823529411765" stroke-opacity="1" stroke-linecap="round" stroke-miterlimit="10" stroke-width="2" stroke-dasharray=""/><path fill="rgb(240,230,140)" stroke="rgb(255,255,255)" paint-order="fill stroke markers" d=" M 80 400 L 120 400 L 120 440 L 80 440 L 80 400 Z" fill-opacity="0.7058823529411765" stroke-opacity="1" stroke-linecap="round" stroke-miterlimit="10" stroke-width="2" stroke-dasharray=""/><path fill="rgb(240,230,140)" stroke="rgb(255,255,255)" paint-order="fill stroke markers" d=" M 80 440 L 120 440 L 120 480 L 80 480 L 80 440 Z" fill-opacity="0.7058823529411765" stroke-opacity="1" stroke-linecap="round" stroke-miterlimit="10" stroke-width="2" stroke-dasharray=""/><path fill="rgb(240,230,140)" stroke="rgb(255,255,255)" paint-order="fill stroke markers" d=" M 80 480 L 120 480 L 120 520 L 80 520 L 80 480 Z" fill-opacity="0.7058823529411765" stroke-opacity="1" stroke-linecap="round" stroke-miterlimit="10" stroke-width="2" stroke-dasharray=""/><path fill="rgb(240,230,140)" stroke="rgb(255,255,255)" paint-order="fill stroke markers" d=" M 120 480 L 160 480 L 160 520 L 120 520 L 120 480 Z" fill-opacity="0.7058823529411765" stroke-opacity="1" stroke-linecap="round" stroke-miterlimit="10" stroke-width="2" stroke-dasharray=""/><path fill="rgb(173,216,230)" stroke="rgb(255,255,255)" paint-order="fill stroke markers" d=" M 280 360 L 320 360 L 320 400 L 280 400 L 280 360 Z" fill-opacity="0.7058823529411765" stroke-opacity="1" stroke-linecap="round" stroke-miterlimit="10" stroke-width="2" stroke-dasharray=""/><path fill="rgb(173,216,230)" stroke="rgb(255,255,255)" paint-order="fill stroke markers" d=" M 320 360 L 360 360 L 360 400 L 320 400 L 320 360 Z" fill-opacity="0.7058823529411765" stroke-opacity="1" stroke-linecap="round" stroke-miterlimit="10" stroke-width="2" stroke-dasharray=""/><path fill="rgb(173,216,230)" stroke="rgb(255,255,255)" paint-order="fill stroke markers" d=" M 320 400 L 360 400 L 360 440 L 320 440 L 320 400 Z" fill-opacity="0.7058823529411765" stroke-opacity="1" stroke-linecap="round" stroke-miterlimit="10" stroke-width="2" stroke-dasharray=""/><path fill="rgb(173,216,230)" stroke="rgb(255,255,255)" paint-order="fill stroke markers" d=" M 320 440 L 360 440 L 360 480 L 320 480 L 320 440 Z" fill-opacity="0.7058823529411765" stroke-opacity="1" stroke-linecap="round" stroke-miterlimit="10" stroke-width="2" stroke-dasharray=""/></g></svg>